<?xml version="1.0" encoding="UTF-8"?>
<svg xmlns="http://www.w3.org/2000/svg" viewBox="0 0 129.53 35.1">
    <defs>
        <style>
            .cls-1{fill:#1c222b;}.cls-2{fill:#72dbfb;}.cls-3{fill:#51a8f8;}.cls-4{fill:#6ecefa;}.cls-5{fill:#489af8;}.cls-6{fill:#56b2f9;}.cls-7{fill:#a7fcfe;}.cls-8{fill:#60bff8;}.cls-9{fill:#4492f7;}.cls-10{fill:#7ee6fc;}.cls-11{fill:#86f1fd;}
        </style>
    </defs>
    <title>
        easygo logo dark
    </title>
    <g id="Layer_1" data-name="Layer 1">
        <path d="M123.29,12.81C119,12.81,117,15.1,117,20s2,7.21,6.26,7.21,6.24-2.29,6.24-7.21S127.55,12.81,123.29,12.81Zm0,12.06c-2.64,0-3.48-1.18-3.48-4.85s.84-4.85,3.48-4.85,3.49,1.18,3.49,4.85S125.93,24.87,123.29,24.87Z" class="cls-1"/>
        <polygon points="60.04 10.67 60.04 8.14 48.96 8.14 48.96 26.89 60.04 26.89 60.04 24.37 51.71 24.37 51.71 18.73 59.05 18.73 59.05 16.25 51.71 16.25 51.71 10.67 60.04 10.67" class="cls-1"/>
        <path d="M63.15,22.82c0,2.84,1.66,4.41,4.68,4.41A7.09,7.09,0,0,0,72,26l.1-.07v.95h2.61V18.07c0-3.78-1.54-5.26-5.51-5.26a36.65,36.65,0,0,0-4.63.32h-.07v2.39l.09,0a28.48,28.48,0,0,1,4.3-.34c2.54,0,3.13.55,3.13,3v.6h-.08a21.71,21.71,0,0,0-2.71-.19h-.12c-4.1,0-5.93,1.31-5.93,4.24Zm2.7-.05c0-1.53.78-2,3.1-2h.1a27.68,27.68,0,0,1,2.88.13H72v2.82l0,0A6.48,6.48,0,0,1,68.19,25c-1.62,0-2.34-.66-2.34-2.16Z" class="cls-1"/>
        <path d="M81.73,27.23c3.64,0,5.49-1.37,5.49-4.08-.12-2.87-1.76-3.5-4.47-4.19l-.33-.09c-1.84-.46-2.37-.91-2.37-2,0-1.55,1.44-1.68,2.91-1.68.76,0,2.58.13,3.18.22h.1V13.15h-.07a29.78,29.78,0,0,0-3.38-.33c-3.69,0-5.41,1.28-5.41,4a3.53,3.53,0,0,0,1.16,3,7.51,7.51,0,0,0,2.95,1.35l.57.15c1.87.5,2.32.62,2.43,1.86,0,1-.5,1.66-2.95,1.66a29.24,29.24,0,0,1-3.76-.53l-.09,0v2.42h.06A25.33,25.33,0,0,0,81.73,27.23Z" class="cls-1"/>
        <path d="M91.41,32.17c2.42,0,3.68-1.07,4.8-4.1l5.54-14.93H99L95.32,23.5l-.07-.2c-.23-.69-3.61-10.16-3.61-10.16H88.92l5,13.55v0l-.44,1.21C93,29.37,92.36,29.81,91,29.81l-.59,0-.57-.07h0l-.8-.09h-.08v2.3H89C89.37,32,90.9,32.17,91.41,32.17Z" class="cls-1"/>
        <path d="M108.82,32.51c4.16,0,6.1-1.88,6.1-5.91V13.72l-.06,0a18.65,18.65,0,0,0-5.15-.89c-4.53,0-6.73,2.38-6.73,7.26,0,4.55,2,7.16,5.45,7.16a6.29,6.29,0,0,0,3.69-1.13l.11-.07v.71c0,2.55-1,3.41-3.74,3.41-.46,0-1.54-.15-2.41-.27l-.74-.09v2.37h.07A31.5,31.5,0,0,0,108.82,32.51Zm3.38-9a5.68,5.68,0,0,1-3.43,1.32c-2.06,0-3-1.55-3-4.88,0-3.56,1-4.82,4-4.82a9.7,9.7,0,0,1,2.46.3h.06v8.05Z" class="cls-1"/>
        <polygon points="6.08 18.86 9.43 9.43 22.98 5.7 21.5 18.86 18.89 18.86 9.05 23.43 6.08 18.86" class="cls-2"/>
        <polygon points="10.72 35.1 18.89 26.83 20.37 35.1 10.72 35.1" class="cls-3"/>
        <path d="M18.9,0A9.44,9.44,0,0,0,9.46,9.43H19.79Z" class="cls-4"/>
        <path d="M28.35,28.3a9.45,9.45,0,0,1-9.45-9.44l11.32-2.23Z" class="cls-3"/>
        <path d="M28.35,28.3a9.43,9.43,0,0,0,9.41-9.44l-9.44-1.92Z" class="cls-5"/>
        <polygon points="30.16 18.86 18.89 18.86 18.89 7.67 28.33 9.43 30.16 18.86" class="cls-6"/>
        <path d="M0,18.86A9.43,9.43,0,0,1,9.43,9.43v9.43l-3.5,2Z" class="cls-7"/>
        <path d="M18.9,0a9.43,9.43,0,0,1,9.43,9.43H18.9Z" class="cls-8"/>
        <path d="M28.33,9.43a9.43,9.43,0,0,1,9.43,9.43H28.33Z" class="cls-9"/>
        <polygon points="27.07 35.1 18.89 26.83 18.89 35.1 27.07 35.1" class="cls-3"/>
        <path d="M6.48,18.86l2.95,9.43a9.46,9.46,0,0,0,9.47-9.43Z" class="cls-10"/>
        <path d="M0,18.86a9.43,9.43,0,0,0,9.43,9.43V18.86Z" class="cls-11"/>
    </g>
</svg>
